<svg xmlns="http://www.w3.org/2000/svg"><symbol viewBox="0 0 444.93997 445.28003" id="src-1"><defs id="defs124"/><namedview xmlns="http://sodipodi.sourceforge.net/DTD/sodipodi-0.dtd" id="namedview122" pagecolor="#ffffff" bordercolor="#666666" borderopacity="1.0" xmlns:ns1="http://www.inkscape.org/namespaces/inkscape" ns1:pageshadow="2" ns1:pageopacity="0.0" ns1:pagecheckerboard="0" showgrid="false" ns1:zoom="1.2059855" ns1:cx="276.53733" ns1:cy="75.87156" ns1:window-width="1366" ns1:window-height="745" ns1:window-x="-8" ns1:window-y="-8" ns1:window-maximized="1" ns1:current-layer="Capa_1"/><g id="g89"><path d="M414.621,4.019l0.938-0.934l-5.17-0.088c-2.665-0.431-5.45-0.675-8.355-0.675c-3.51,0-5.75,0.364-5.75,0.364l-0.497,0.076   L225.282,0c-9.097,0-20.757,4.787-27.112,11.146L11.582,197.742c-6.494,6.486-11.321,18.3-11.243,27.483l1.545,172.193   c-0.444,3.427-0.511,7.582,0.11,12.011l0.066,7.146l1.176-1.179c3.389,12.311,12.511,24.931,32.901,28.349l9.153,1.535v-71.941   L372.647,45.979h72.294l-1.531-9.155C440.513,19.61,430.018,8.053,414.621,4.019z M29.589,425.313   c-11.722-6.147-12.537-18.582-12.285-23.979l12.285-12.283V425.313z M22.683,208.843L209.267,22.247   c3.43-3.431,11.062-6.548,16.188-6.548l0,0l152.791,2.481L17.419,379.008L16.04,225.085   C16.002,220.109,19.164,212.361,22.683,208.843z M388.709,30.286l12.242-12.249c0.333-0.006,0.693-0.014,1.074-0.014   c8.104,0,17.841,2.356,22.979,12.263H388.709z" id="path87"/></g><g id="g91"/><g id="g93"/><g id="g95"/><g id="g97"/><g id="g99"/><g id="g101"/><g id="g103"/><g id="g105"/><g id="g107"/><g id="g109"/><g id="g111"/><g id="g113"/><g id="g115"/><g id="g117"/><g id="g119"/><path style="fill: rgb(212, 0, 0); stroke-width: 0.829197;" d="m 17.070915,300.01471 -0.599997,-77.8401 1.804998,-4.95004 c 1.749889,-4.7989 4.745349,-7.89039 98.109104,-101.25414 93.44145,-93.441461 96.45199,-96.358287 101.27929,-98.126594 l 4.97519,-1.82248 76.5907,1.276845 c 42.1249,0.702265 76.71814,1.404265 76.87387,1.560001 0.15574,0.155735 -80.42802,80.99368 -179.075,179.639878 L 17.670911,377.85481 Z" id="path280"/><path style="fill: rgb(212, 0, 0); stroke-width: 0.829197;" d="m 18.1824,371.48043 c -0.03358,-2.73636 -0.349409,-37.43827 -0.701834,-77.11536 l -0.640773,-72.14017 1.85123,-4.24427 c 2.462752,-5.6463 5.73572,-9.0486 90.711797,-94.29624 C 195.34247,37.470104 212.53809,20.840936 218.45574,18.223873 l 4.24122,-1.875669 70.86764,1.166633 c 38.97721,0.641649 73.10648,1.464153 75.84283,1.827787 l 4.97519,0.661153 L 196.31304,198.22969 18.243462,376.45561 Z" id="path319"/><path style="fill: rgb(212, 0, 0); stroke-width: 0.829197;" d="m 18.185591,372.3089 c -0.03121,-2.27989 -0.348702,-36.98148 -0.705532,-77.11463 l -0.64878,-72.96937 1.84744,-4.22608 c 2.484059,-5.68236 5.721878,-9.04783 91.136821,-94.7298 C 195.59551,37.220887 212.50306,20.865672 218.44547,18.187732 l 4.19403,-1.890028 70.48177,1.192288 c 69.02969,1.167724 80.84675,1.560147 80.84675,2.684768 0,0.306143 -80.03828,80.59425 -177.86284,178.41801 L 18.242342,376.45416 Z" id="path358"/><path style="fill: rgb(212, 0, 0); stroke-width: 0.293166;" d="m 395.19174,24.036758 6.01271,-6.01271 3.51428,0.291133 c 8.81054,0.729886 14.78239,3.909959 18.97752,10.105713 0.44272,0.653854 0.80551,1.287769 0.8062,1.4087 5.9e-4,0.120931 -7.9468,0.219874 -17.66108,0.219874 h -17.66234 z" id="path514"/><path style="fill: rgb(212, 0, 0); stroke-width: 0.207299;" d="m 27.649235,424.00359 c -1.897307,-1.23575 -4.833901,-4.11078 -5.959647,-5.8347 -2.631891,-4.03038 -3.985566,-8.49109 -4.197401,-13.83152 l -0.119231,-3.00584 6.031776,-6.01034 6.031775,-6.01034 v 17.87823 c 0,9.83302 -0.03467,17.87823 -0.07705,17.87823 -0.04238,0 -0.811978,-0.47867 -1.71022,-1.06372 z" id="path553"/></symbol><symbol viewBox="0 0 479.94263 512.008" id="src-2"><g><g><path d="m456.408 7.5h-400.81c-8.854 0-16.032 7.178-16.032 16.032v460.256c0 17.631 20.655 27.17 34.077 15.736l182.36-155.344 182.36 155.344c13.422 11.433 34.077 1.895 34.077-15.736v-460.256c.001-8.854-7.177-16.032-16.032-16.032z" fill="#ff7e92"/><path d="m55.598 7.5c-8.854 0-16.032 7.178-16.032 16.032v460.256c0 17.631 20.655 27.17 34.077 15.736l182.36-155.344v-336.68z" fill="#ff5f7a"/><path d="m71.631 7.5v434.257c0 6.837 8.01 10.536 13.214 6.102l150.366-128.088c5.989-5.104 13.39-7.656 20.792-7.656s14.803 2.552 20.792 7.656l150.366 128.088c5.205 4.434 13.214.735 13.214-6.102v-434.257z" fill="#fb4455"/><path d="m104.987 386.876c5.816 2.697 12.228 1.812 17.121-2.348l97.51-83.062c10.138-8.639 23.062-13.398 36.386-13.398 13.332 0 26.248 4.76 36.386 13.406l97.51 83.055c4.893 4.165 11.304 5.045 17.121 2.348 5.824-2.689 9.308-8.13 9.308-14.553v-364.824h-320.65v364.819c0 6.424 3.484 11.864 9.308 14.557z" fill="#ff5f7a"/></g><g><path d="m456.409 0h-400.811c-12.975 0-23.532 10.557-23.532 23.532v460.256c0 11.116 6.269 20.916 16.361 25.577 10.091 4.66 21.618 3.078 30.08-4.131l177.497-151.201 177.496 151.201c5.243 4.466 11.662 6.773 18.188 6.773 4.006 0 8.053-.869 11.892-2.642 10.092-4.661 16.361-14.46 16.361-25.577v-460.256c0-12.975-10.557-23.532-23.532-23.532zm8.532 483.788c0 5.276-2.86 9.747-7.65 11.958-4.788 2.211-10.046 1.491-14.064-1.931l-182.36-155.344c-1.401-1.194-3.132-1.791-4.863-1.791s-3.462.597-4.863 1.791l-182.361 155.344c-4.017 3.422-9.275 4.144-14.064 1.931-4.79-2.212-7.65-6.682-7.65-11.958v-460.256c0-4.705 3.828-8.532 8.532-8.532h8.533v64.646c0 4.143 3.358 7.5 7.5 7.5s7.5-3.357 7.5-7.5v-64.646h353.745v313.148c0 4.142 3.358 7.5 7.5 7.5s7.5-3.358 7.5-7.5v-313.148h8.533c4.705 0 8.532 3.828 8.532 8.532z"/><path d="m440.376 352.713c-4.142 0-7.5 3.358-7.5 7.5v82.662l-151.216-128.812c-7.148-6.093-16.26-9.448-25.657-9.448s-18.508 3.355-25.655 9.447l-151.217 128.813v-331.164c0-4.143-3.358-7.5-7.5-7.5s-7.5 3.357-7.5 7.5v347.405c0 2.925 1.7 5.583 4.355 6.809 2.657 1.227 5.782.797 8.008-1.1l163.582-139.345c4.437-3.782 10.094-5.864 15.927-5.864s11.49 2.083 15.929 5.866l163.581 139.344c1.384 1.179 3.115 1.791 4.865 1.791 1.065 0 2.138-.227 3.143-.691 2.655-1.226 4.355-3.884 4.355-6.809v-98.903c0-4.143-3.358-7.501-7.5-7.501z"/></g></g></symbol><symbol viewBox="0 0 431.97867 512.0138" id="src-3"><g><g id="_x32_2_bookmark"><path d="m424.48 27.708v464.647c0 9.673-10.77 15.451-18.829 10.103l-146.254-97.059c-2.053-1.362-4.722-1.362-6.775 0l-146.254 97.059c-8.059 5.348-18.829-.43-18.829-10.103v-464.647c0-11.161 9.047-20.208 20.208-20.208h296.525c11.161 0 20.208 9.047 20.208 20.208z" fill="#60b7ff"/><path d="m266.882 113.336 23.832 48.29c1.766 3.579 5.18 6.059 9.129 6.633l53.291 7.744c9.945 1.445 13.916 13.667 6.72 20.681l-38.562 37.588c-2.858 2.786-4.162 6.799-3.487 10.732l9.103 53.076c1.699 9.905-8.697 17.458-17.593 12.782l-47.665-25.059c-3.532-1.857-7.752-1.857-11.284 0l-47.665 25.059c-8.895 4.676-19.291-2.877-17.593-12.782l9.103-53.076c.675-3.933-.629-7.947-3.487-10.732l-38.562-37.588c-7.196-7.015-3.225-19.236 6.72-20.681l53.291-7.744c3.949-.574 7.363-3.054 9.129-6.633l23.833-48.29c4.449-9.012 17.3-9.012 21.747 0z" fill="#ffd15b"/><g><path d="m404.272 7.5h-38.522c11.161 0 20.208 9.047 20.208 20.208v461.68l19.693 13.069c8.059 5.348 18.829-.43 18.829-10.103v-464.646c0-11.161-9.047-20.208-20.208-20.208z" fill="#26a6fe"/></g></g><g><g><path d="m80.039 492.354v-464.646c0-15.278 12.43-27.708 27.708-27.708h27.353c4.142 0 7.5 3.358 7.5 7.5s-3.358 7.5-7.5 7.5h-27.353c-7.007 0-12.708 5.701-12.708 12.708v464.647c-.001 3.678 4.088 5.91 7.182 3.853l146.253-97.059c4.565-3.032 10.504-3.032 15.072.001l77.783 51.62c3.452 2.291 4.393 6.945 2.102 10.396s-6.946 4.393-10.396 2.102l-77.026-51.117-145.494 96.555c-13.128 8.713-30.477-.806-30.476-16.352zm332.282 19.646c-3.831 0-7.571-1.139-10.817-3.293l-39.305-26.084c-3.451-2.291-4.393-6.945-2.102-10.396 2.29-3.452 6.946-4.392 10.396-2.102 42.893 28.465 39.963 26.875 41.828 26.875 2.241 0 4.659-1.776 4.659-4.645v-464.647c0-7.007-5.701-12.708-12.708-12.708h-234.172c-4.142 0-7.5-3.358-7.5-7.5s3.358-7.5 7.5-7.5h234.171c15.278 0 27.708 12.43 27.708 27.708v464.647c.001 10.832-8.818 19.645-19.658 19.645z"/></g><g><path d="m314.977 319.775c-3.119 0-6.254-.752-9.151-2.275l-47.665-25.059c-1.347-.709-2.956-.709-4.304 0l-47.664 25.059c-6.661 3.501-14.58 2.929-20.668-1.494-6.087-4.423-9.079-11.778-7.807-19.194l9.104-53.076c.257-1.5-.24-3.031-1.33-4.094l-38.562-37.588c-5.389-5.252-7.292-12.961-4.966-20.118s8.396-12.274 15.843-13.356l53.291-7.744c1.507-.219 2.809-1.165 3.483-2.531l23.832-48.29c3.331-6.748 10.074-10.939 17.599-10.939s14.268 4.192 17.599 10.939l23.832 48.29c.674 1.365 1.976 2.311 3.482 2.53l53.292 7.744c7.446 1.082 13.517 6.199 15.842 13.356 2.325 7.156.422 14.865-4.966 20.118l-38.562 37.588c-1.09 1.063-1.587 2.593-1.33 4.095l9.104 53.075c1.272 7.417-1.72 14.771-7.807 19.194-3.443 2.5-7.468 3.77-11.521 3.77zm-58.967-42.866c3.137 0 6.273.751 9.132 2.254l47.666 25.059c2.295 1.208 4.171.157 4.871-.352.699-.508 2.278-1.966 1.84-4.523l-9.104-53.075c-1.092-6.369 1.019-12.862 5.645-17.371l38.562-37.588c1.858-1.812 1.437-3.919 1.17-4.741s-1.166-2.774-3.733-3.147l-53.292-7.744c-6.392-.929-11.916-4.941-14.776-10.735l-23.833-48.291c-1.148-2.327-3.283-2.578-4.147-2.578s-2.999.251-4.147 2.578l-23.832 48.29c-2.86 5.794-8.384 9.807-14.777 10.735l-53.291 7.744c-2.568.373-3.466 2.325-3.733 3.147s-.688 2.93 1.17 4.741l38.562 37.588c4.626 4.509 6.736 11.002 5.645 17.37l-9.104 53.077c-.438 2.557 1.141 4.015 1.84 4.523.7.509 2.575 1.561 4.871.352l47.665-25.059c2.857-1.502 5.993-2.254 9.13-2.254z"/></g></g></g></symbol><symbol viewBox="0 0 360.58398 511.99857" id="src-4"><path d="m140.289062 322.460938v139.929687l40-40 40 40v-139.390625zm0 0" fill="#fafaff"/><path d="m220.46875 322.121094c-.058594.160156-.117188.328125-.179688.488281v139.390625l40 40c0-48.890625 0-121.480469 0-175.871094zm0 0" fill="#e87288"/><path d="m140.269531 322.011719-39.980469 4.128906v175.859375l40-40v-139.929688c-.007812-.019531-.007812-.039062-.019531-.058593zm0 0" fill="#e87288"/><path d="m220.289062 322.609375c-5.949218 16.332031-21.609374 27.980469-40 27.980469-18.570312 0-34.347656-11.878906-40-28.519532-.007812-.019531-.007812-.039062-.019531-.058593-6.800781 4.597656-15.007812 7.289062-23.839843 7.289062-5.710938 0-11.160157-1.121093-16.140626-3.160156-15.519531-6.359375-26.457031-21.621094-26.4375-39.410156-23.511718 0-42.570312-19.058594-42.570312-42.582031 0-8.757813 2.648438-16.898438 7.1875-23.667969-16.578125-5.820313-28.46875-21.621094-28.46875-40.191407 0-18.570312 11.890625-34.359374 28.46875-40.179687-4.539062-6.769531-7.1875-14.910156-7.1875-23.679687 0-23.539063 19.109375-42.609376 42.660156-42.570313-.082031-23.507813 18.980469-42.570313 42.488282-42.570313 8.761718 0 16.910156 2.640626 23.679687 7.179688 5.820313-16.578125 21.609375-28.46875 40.179687-28.46875 18.570313 0 34.363282 11.890625 40.179688 28.46875 6.773438-4.539062 14.921875-7.179688 23.683594-7.179688 23.507812 0 42.566406 19.0625 42.566406 42.570313.722656 0 1.433594.019531 2.140625.050781 22.519531 1.121094 40.441406 19.730469 40.441406 42.519532 0 8.769531-2.648437 16.910156-7.191406 23.679687 16.582031 5.820313 28.472656 21.609375 28.472656 40.179687 0 18.570313-11.890625 34.371094-28.472656 40.191407 4.542969 6.769531 7.191406 14.910156 7.191406 23.667969 0 23.589843-19.179687 42.691406-42.789062 42.582031.160156 17.800781-10.722657 33.039062-26.222657 39.398437-4.96875 2.042969-10.429687 3.171875-16.136718 3.171875-8.761719 0-16.910156-2.652343-23.683594-7.179687-.058594.160156-.117188.328125-.179688.488281zm0 0" fill="#ffe781"/><path d="m281.289062 181c0 55.78125-45.21875 101-101 101s-101-45.21875-101-101 45.21875-101 101-101 101 45.21875 101 101zm0 0" fill="#fff5b3"/><path d="m110.289062 120c5.519532 0 10-4.480469 10-10s-4.480468-10-10-10c-5.519531 0-10 4.480469-10 10s4.480469 10 10 10zm0 0"/><path d="m360.582031 180.289062c0-18.429687-9.65625-35.25-24.882812-44.699218 2.371093-6.058594 3.601562-12.539063 3.601562-19.160156 0-25.800782-18.558593-47.382813-43.386719-51.765626-4.359374-24.617187-25.914062-43.375-51.761718-43.375-6.625 0-13.105469 1.226563-19.160156 3.597657-9.449219-15.230469-26.269532-24.886719-44.703126-24.886719-18.429687 0-35.253906 9.65625-44.699218 24.886719-6.058594-2.371094-12.535156-3.597657-19.160156-3.597657-14.066407 0-27.28125 5.484376-37.203126 15.441407-7.691406 7.71875-12.6875 17.402343-14.507812 27.917969-10.554688 1.839843-20.273438 6.859374-28.011719 14.582031-9.949219 9.933593-15.425781 23.144531-15.425781 37.199219 0 6.621093 1.226562 13.101562 3.601562 19.160156-15.226562 9.445312-24.882812 26.269531-24.882812 44.699218 0 18.4375 9.65625 35.261719 24.882812 44.707032-2.375 6.0625-3.601562 12.535156-3.601562 19.152344 0 25.851562 18.746094 47.40625 43.359375 51.773437 2.683594 15.335937 12.035156 28.671875 25.648437 36.4375v169.640625c0 4.046875 2.4375 7.691406 6.171876 9.238281 3.738281 1.546875 8.039062.691407 10.898437-2.167969l72.929687-72.925781 72.929688 72.925781c2.863281 2.863282 7.160156 3.714844 10.898438 2.167969 3.734374-1.546875 6.171874-5.191406 6.171874-9.238281v-169.652344c13.59375-7.761718 22.878907-21.082031 25.480469-36.386718 10.5625-1.824219 20.292969-6.828126 28.046875-14.546876 9.984375-9.941406 15.484375-23.175781 15.484375-37.265624 0-6.617188-1.230469-13.09375-3.601562-19.152344 15.226562-9.445313 24.882812-26.269532 24.882812-44.707032zm-250.292969 158.644532c2.027344.234375 4.074219.367187 6.140626.367187 4.730468 0 9.378906-.636719 13.859374-1.859375v120.417969l-20 20zm62.929688 75.996094-22.929688 22.925781v-86.710938c8.585938 5.996094 18.980469 9.445313 30 9.445313 10.957032 0 21.371094-3.441406 30-9.433594v86.703125l-22.925781-22.929687c-3.90625-3.90625-10.238281-3.90625-14.144531 0zm57.070312 42.925781v-120.414063c4.484376 1.222656 9.136719 1.859375 13.863282 1.859375 2.0625 0 4.109375-.132812 6.136718-.371093v138.929687zm88.507813-246.671875c-2.917969 1.027344-5.199219 3.34375-6.175781 6.28125-.976563 2.933594-.539063 6.15625 1.183594 8.726562 3.597656 5.359375 5.496093 11.617188 5.496093 18.097656 0 8.730469-3.40625 16.933594-9.59375 23.089844-6.15625 6.125-14.316406 9.492188-22.996093 9.492188-.066407 0-.128907-.003906-.199219 0-2.660157 0-5.210938 1.058594-7.089844 2.945312-1.886719 1.894532-2.933594 4.46875-2.910156 7.144532.117187 13.222656-7.738281 25.019531-20.015625 30.058593-.003906 0-.003906 0-.003906 0-3.914063 1.605469-8.066407 2.421875-12.339844 2.421875-6.488282 0-12.753906-1.898437-18.121094-5.492187-1.421875-.949219-3.046875-1.492188-4.710938-1.636719-.007812 0-.015624 0-.023437 0-.261719-.023438-.523437-.039062-.785156-.039062-.074219-.003907-.144531-.011719-.21875-.011719-4.867188 0-8.917969 3.476562-9.8125 8.082031-4.9375 12.230469-16.917969 20.386719-30.1875 20.386719-13.746094 0-25.925781-8.609375-30.425781-21.449219-.359376-1.195312-.9375-2.292969-1.691407-3.253906-.003906-.007813-.007812-.011719-.015625-.019532-.199218-.253906-.40625-.496093-.628906-.730468-.03125-.03125-.058594-.0625-.085938-.09375-.191406-.195313-.394531-.378906-.601562-.554688-.0625-.058594-.121094-.117187-.1875-.171875-.0625-.050781-.132812-.097656-.199219-.148437-1.042969-.824219-2.246093-1.449219-3.558593-1.804688-2.8125-.765625-5.816407-.269531-8.230469 1.363282-5.386719 3.648437-11.695313 5.574218-18.238281 5.574218-4.28125 0-8.4375-.8125-12.347657-2.414062-12.304687-5.042969-20.246093-16.875-20.230469-30.144532.003907-2.65625-1.050781-5.199218-2.925781-7.078124-1.875-1.878907-4.421875-2.933594-7.074219-2.933594-17.960937 0-32.570312-14.613282-32.570312-32.582032 0-6.480468 1.902344-12.738281 5.496094-18.097656 1.722656-2.570312 2.160156-5.792968 1.183594-8.726562-.976563-2.9375-3.257813-5.253906-6.175782-6.28125-13.027344-4.570313-21.78125-16.929688-21.78125-30.753906 0-13.816407 8.75-26.171876 21.78125-30.742188 2.917969-1.027344 5.199219-3.34375 6.175782-6.277344.976562-2.9375.539062-6.160156-1.183594-8.730468-3.59375-5.359376-5.496094-11.621094-5.496094-18.109376 0-8.707031 3.394531-16.890624 9.558594-23.042968 6.15625-6.144532 14.332031-9.527344 23.027344-9.527344h.074218c2.65625 0 5.203125-1.054688 7.078125-2.933594 1.878907-1.882812 2.933594-4.4375 2.921875-7.101562-.027344-8.671875 3.328125-16.832032 9.449219-22.976563 6.144531-6.164062 14.328125-9.558593 23.039063-9.558593 6.5 0 12.761718 1.894531 18.113281 5.484374 2.566406 1.722657 5.789062 2.15625 8.726562 1.183594 2.9375-.976562 5.253907-3.257812 6.277344-6.175781 4.574219-13.027344 16.925781-21.78125 30.742187-21.78125 13.816407 0 26.171876 8.753906 30.746094 21.78125 1.023438 2.917969 3.34375 5.199219 6.277344 6.175781 2.9375.976563 6.15625.539063 8.726562-1.183594 5.351563-3.589843 11.613282-5.484374 18.113282-5.484374 17.957031 0 32.566406 14.609374 32.566406 32.570312 0 5.523438 4.480469 10 10 10 18.09375 0 32.582031 14.617188 32.582031 32.570312 0 6.484376-1.902343 12.75-5.496093 18.109376-1.722657 2.570312-2.160157 5.792968-1.183594 8.726562.976562 2.9375 3.257812 5.253906 6.175781 6.277344 13.03125 4.574218 21.78125 16.929687 21.78125 30.746094.003906 13.824218-8.75 26.179687-21.78125 30.753906zm0 0"/><path d="m180.289062 70c-14.109374 0-27.871093 2.644531-40.902343 7.855469-5.128907 2.050781-7.621094 7.871093-5.570313 12.996093 2.050782 5.128907 7.871094 7.621094 12.996094 5.574219 10.660156-4.265625 21.921875-6.425781 33.476562-6.425781 49.628907 0 90 40.375 90 90s-40.371093 90-90 90c-49.625 0-90-40.375-90-90 0-11.554688 2.164063-22.816406 6.425782-33.476562 2.050781-5.128907-.441406-10.949219-5.570313-13-5.128906-2.046876-10.945312.441406-13 5.570312-5.210937 13.035156-7.855469 26.796875-7.855469 40.90625 0 60.652344 49.347657 110 110 110 60.65625 0 110-49.347656 110-110s-49.34375-110-110-110zm0 0"/><path d="m230.289062 180c0 5.523438 4.480469 10 10 10 5.523438 0 10-4.476562 10-10 0-38.597656-31.402343-70-70-70-5.519531 0-10 4.476562-10 10s4.480469 10 10 10c27.570313 0 50 22.429688 50 50zm0 0"/></symbol><symbol viewBox="0 0 487.01367 512.00134" id="src-5"><g><g><path clip-rule="evenodd" d="m158.205 495.22h293.268l28.04-53.581-28.04-53.61h-293.268z" fill="#ffd772" fill-rule="evenodd"/></g><g><path clip-rule="evenodd" d="m158.205 495.22v-107.191-4.108c0-2.844-2.327-5.143-5.171-5.143h-115.405c-2.844 0-5.143 2.298-5.143 5.143v115.408c0 2.816 2.27 5.143 5.085 5.171h.057 115.405.057c2.815-.029 5.114-2.356 5.114-5.171v-4.109z" fill="#f9f7f8" fill-rule="evenodd"/></g><g><path clip-rule="evenodd" d="m37.629 318.847h115.405c2.844 0 5.171-2.327 5.171-5.143v-4.108-107.22-4.08c0-2.844-2.327-5.171-5.171-5.171h-115.405c-2.844 0-5.143 2.327-5.143 5.171v115.408c0 2.816 2.299 5.143 5.143 5.143z" fill="#f9f7f8" fill-rule="evenodd"/></g><g><path clip-rule="evenodd" d="m158.205 202.375v107.221h293.268l28.04-53.61-28.04-53.611z" fill="#75cef8" fill-rule="evenodd"/></g><g><path clip-rule="evenodd" d="m158.205 123.943h293.268l28.04-53.582-28.04-53.61h-293.268z" fill="#eb5468" fill-rule="evenodd"/></g><g><path clip-rule="evenodd" d="m158.205 123.943v-107.192-4.108c0-2.844-2.327-5.143-5.171-5.143h-115.405c-2.844 0-5.143 2.298-5.143 5.143v115.408c0 2.844 2.298 5.171 5.143 5.171h115.405c2.844 0 5.171-2.327 5.171-5.171z" fill="#f9f7f8" fill-rule="evenodd"/></g><g><path clip-rule="evenodd" d="m121.719 16.751v107.192 4.108c0 2.844-2.327 5.171-5.171 5.171h36.486c2.844 0 5.171-2.327 5.171-5.171v-4.108-107.192-4.108c0-2.844-2.327-5.143-5.171-5.143h-36.486c2.844 0 5.171 2.298 5.171 5.143z" fill="#dddaec" fill-rule="evenodd"/></g><g><path clip-rule="evenodd" d="m153.034 193.124h-36.486c2.844 0 5.171 2.327 5.171 5.171v4.08 107.22 4.108c0 2.816-2.327 5.143-5.171 5.143h36.486c2.844 0 5.171-2.327 5.171-5.143v-4.108-107.22-4.08c0-2.843-2.327-5.171-5.171-5.171z" fill="#dddaec" fill-rule="evenodd"/></g><g><path clip-rule="evenodd" d="m153.034 378.778h-36.486c2.844 0 5.171 2.298 5.171 5.143v4.108 107.191 4.108c0 2.816-2.298 5.143-5.114 5.171h36.429.057c2.815-.029 5.114-2.356 5.114-5.171v-4.108-107.191-4.108c0-2.845-2.327-5.143-5.171-5.143z" fill="#dddaec" fill-rule="evenodd"/></g><g><path clip-rule="evenodd" d="m405.851 16.751c6.665 18.387 10.4 38.872 10.4 60.477 0 16.376-2.126 32.091-6.062 46.715h41.284l28.04-53.581-28.04-53.61h-45.622z" fill="#e5384f" fill-rule="evenodd"/></g><g><path clip-rule="evenodd" d="m405.851 202.375c6.665 18.387 10.4 38.872 10.4 60.505 0 16.347-2.126 32.063-6.062 46.715h41.284l28.04-53.61-28.04-53.61z" fill="#60b7ff" fill-rule="evenodd"/></g><g><path clip-rule="evenodd" d="m405.851 388.029c6.665 18.387 10.4 38.872 10.4 60.477 0 16.347-2.126 32.091-6.062 46.715h41.284l28.04-53.581-28.04-53.61h-45.622z" fill="#fbba58" fill-rule="evenodd"/></g><g><path d="m37.629 140.723h115.405c5.811 0 10.708-3.937 12.196-9.28h286.243c2.791 0 5.351-1.55 6.646-4.022l28.04-53.581c1.14-2.178 1.14-4.775 0-6.954l-28.04-53.61c-1.293-2.474-3.854-4.024-6.646-4.024h-124.512c-4.143 0-7.5 3.358-7.5 7.5s3.357 7.5 7.5 7.5h119.972l24.116 46.109-24.115 46.082h-281.229v-92.192h126.177c4.143 0 7.5-3.358 7.5-7.5s-3.357-7.5-7.5-7.5h-126.653c-1.491-5.327-6.387-9.251-12.195-9.251h-115.405c-6.971 0-12.643 5.671-12.643 12.643v115.408c0 6.987 5.672 12.672 12.643 12.672zm2.357-125.723h110.719v110.723h-110.719z"/><path d="m458.119 198.899c-1.293-2.474-3.854-4.024-6.646-4.024h-286.25c-1.498-5.328-6.388-9.251-12.189-9.251h-115.405c-6.971 0-12.643 5.685-12.643 12.671v115.408c0 6.971 5.671 12.643 12.643 12.643h115.405c5.808 0 10.703-3.924 12.194-9.251h286.245c2.792 0 5.352-1.55 6.646-4.024l28.04-53.61c1.14-2.177 1.14-4.775 0-6.952zm-307.414 112.448h-110.719v-110.722h110.719zm296.227-9.251h-281.227v-92.22h281.227l24.117 46.11z"/><path d="m101.235 35.251h-11.807c-4.142 0-7.5 3.358-7.5 7.5s3.358 7.5 7.5 7.5h4.308v47.69c0 4.142 3.358 7.5 7.5 7.5s7.5-3.358 7.5-7.5v-55.19c-.001-4.142-3.358-7.5-7.501-7.5z"/><path d="m110.39 276.498c-4.646.06-9.543.103-13.881.121 2.92-3.94 6.738-9.202 11.643-16.212 3.621-5.164 5.993-10.067 7.051-14.573.063-.27.112-.543.145-.819l.259-2.155c.036-.297.054-.596.054-.895 0-11.914-9.705-21.606-21.635-21.606-10.322 0-19.241 7.336-21.209 17.443-.792 4.066 1.863 8.004 5.928 8.795 4.069.793 8.004-1.862 8.795-5.928.599-3.077 3.327-5.311 6.486-5.311 3.535 0 6.434 2.768 6.625 6.241l-.14 1.164c-.491 1.852-1.7 4.838-4.644 9.037-8.766 12.528-13.971 19.334-16.767 22.992-3.469 4.538-5.38 7.037-4.145 11.105.735 2.419 2.553 4.283 5.032 5.128 1 .333 1.849.617 12.635.617 4.244 0 10.026-.044 17.96-.146 4.142-.053 7.457-3.454 7.403-7.596-.053-4.141-3.447-7.488-7.595-7.402z"/><path d="m95.346 405.869c-10.291 0-19.22 7.335-21.231 17.441-.809 4.062 1.829 8.011 5.891 8.82 4.066.812 8.012-1.829 8.82-5.891.62-3.112 3.362-5.37 6.521-5.37 3.643 0 6.606 2.977 6.606 6.635 0 3.659-2.963 6.635-6.606 6.635-4.142 0-7.5 3.358-7.5 7.5s3.358 7.5 7.5 7.5c3.643 0 6.606 2.964 6.606 6.606 0 3.659-2.963 6.635-6.606 6.635-3.294 0-6.115-2.441-6.554-5.62-.058-.442-.081-.736-.081-1.015 0-4.142-3.358-7.5-7.5-7.5s-7.5 3.358-7.5 7.5c0 .944.063 1.854.214 3.008 1.467 10.619 10.675 18.627 21.421 18.627 11.914 0 21.606-9.706 21.606-21.635 0-5.391-1.989-10.323-5.265-14.112 3.276-3.794 5.265-8.732 5.265-14.13-.001-11.929-9.694-21.634-21.607-21.634z"/><path d="m199.317 60.02h46.254c4.142 0 7.5-3.358 7.5-7.5s-3.358-7.5-7.5-7.5h-46.254c-4.142 0-7.5 3.358-7.5 7.5s3.358 7.5 7.5 7.5z"/><path d="m199.317 96.852h94.03c4.143 0 7.5-3.358 7.5-7.5s-3.357-7.5-7.5-7.5h-94.03c-4.142 0-7.5 3.358-7.5 7.5s3.358 7.5 7.5 7.5z"/><path d="m199.317 244.438h46.254c4.142 0 7.5-3.358 7.5-7.5s-3.358-7.5-7.5-7.5h-46.254c-4.142 0-7.5 3.358-7.5 7.5s3.358 7.5 7.5 7.5z"/><path d="m293.347 266.298h-94.03c-4.142 0-7.5 3.358-7.5 7.5s3.358 7.5 7.5 7.5h94.03c4.143 0 7.5-3.358 7.5-7.5s-3.357-7.5-7.5-7.5z"/><path d="m199.317 431.24h46.254c4.142 0 7.5-3.358 7.5-7.5s-3.358-7.5-7.5-7.5h-46.254c-4.142 0-7.5 3.358-7.5 7.5s3.358 7.5 7.5 7.5z"/><path d="m199.317 468.072h94.03c4.143 0 7.5-3.358 7.5-7.5s-3.357-7.5-7.5-7.5h-94.03c-4.142 0-7.5 3.358-7.5 7.5s3.358 7.5 7.5 7.5z"/><path d="m458.119 384.553c-1.294-2.474-3.854-4.024-6.646-4.024h-124.512c-4.143 0-7.5 3.358-7.5 7.5s3.357 7.5 7.5 7.5h119.972l24.116 46.109-24.115 46.083h-281.229v-92.191h126.177c4.143 0 7.5-3.358 7.5-7.5s-3.357-7.5-7.5-7.5h-126.653c-1.491-5.327-6.386-9.251-12.194-9.251h-115.406c-6.971 0-12.643 5.672-12.643 12.643v115.408c0 6.987 5.671 12.671 12.643 12.671h115.405c5.811 0 10.708-3.937 12.196-9.28h286.243c2.791 0 5.351-1.55 6.646-4.022l28.04-53.582c1.14-2.178 1.14-4.776 0-6.954zm-307.414 112.447h-110.719v-110.723h110.719z"/></g></g></symbol><symbol viewBox="0 0 512.60004 512.00006" id="src-6"><g><path d="m383.5 373.4s-7.5 74.6 40.5 90.6v48h80v-216l-56-112z" fill="#f4a56e"/><path d="m87.5 512v-48c48-16 40.7-89.1 40.7-89.1l-64.2-190.9-56.5 112v216z" fill="#f4a56e"/><path d="m424 104 24-8v278.9l-34.7.6s-66.2-14.8-121.6 29.4c-2.4 1.9-3.7 4.8-3.7 7.8v11.3h-48v-10.2c0-3.7-2-7.1-5.2-8.8-16.8-9.1-70.1-35.9-136.6-29.2l-34.2-.9v-278.9l24 8 176 68.9z" fill="#087182"/><path d="m88 229.7v-149.7c20.4-.7 64.2.4 96 8 28.1 6.7 55 17.5 80 32v264c-25-14.5-51.9-25.3-80-32-31.8-7.6-75.6-8.7-96-8v-54.9" fill="#90e3f5"/><path d="m424 289.6v54.4c-21.2-3.2-42.8-3.2-64 0-34.8 5.4-67.7 19.1-96 40v-264c28.3-20.9 61.2-34.6 96-40 21.2-3.2 42.8-3.2 64 0v150.1" fill="#77d8e8"/><circle cx="180" cy="436" fill="#f69038" r="20"/><circle cx="52" cy="44" fill="#90e3f5" r="20"/><path d="m278.1 33.9 25.9 14.1-25.9 14.1-14.1 25.9-14.1-25.9-25.9-14.1 25.9-14.1 14.1-25.9z" fill="#f69038"/><path d="m358.1 449.9 25.9 14.1-25.9 14.1-14.1 25.9-14.1-25.9-25.9-14.1 25.9-14.1 14.1-25.9z" fill="#90e3f5"/><path d="m120.1 109.6c20.4-.7 64.2.4 96 8 16.4 3.9 32.4 9.2 47.9 15.9v-13.5c-25-14.5-51.9-25.3-80-32-31.8-7.6-75.6-8.7-96-8v264c7.9-.3 19.3-.3 32.1.3z" fill="#fafcfc" opacity=".3"/><path d="m396.4 208s-25.8 45.1-1.8 69.1l61.4 61.9 10.7-43z" fill="#232626" opacity=".2"/><path d="m116 208s25.8 45.1 1.8 69.1l-61.4 61.9-10.7-43z" fill="#232626" opacity=".2"/><path d="m504 512v-216l-106.8-88c-9.2 21.2-6.1 45.7 8 64l42.8 40v24s-48 0-32 80l8 48v48s82-2 80 0z" fill="#ffbe92"/><path d="m7.5 512v-216l106.8-88c9.2 21.2 6.1 45.7-8 64l-42.8 40v24s48 0 32 80l-8 48v48z" fill="#ffbe92"/><g><path d="m120 32h16v16h-16z"/><path d="m376 168h16v16h-16z"/><path d="m424 32h16v16h-16z"/><path d="m0 189.7h16v16h-16z"/><path d="m232 464h16v16h-16z"/><path d="m180 408c-15.4 0-28 12.6-28 28s12.6 28 28 28 28-12.6 28-28-12.6-28-28-28zm0 40c-6.6 0-12-5.4-12-12s5.4-12 12-12 12 5.4 12 12-5.4 12-12 12z"/><path d="m52 72c15.4 0 28-12.6 28-28s-12.6-28-28-28-28 12.6-28 28 12.6 28 28 28zm0-40c6.6 0 12 5.4 12 12s-5.4 12-12 12-12-5.4-12-12 5.4-12 12-12z"/><path d="m220.2 55 23.8 13 13 23.8c1.4 2.6 4.1 4.2 7 4.2s5.6-1.6 7-4.2l13-23.8 23.8-13c2.6-1.4 4.2-4.1 4.2-7s-1.6-5.6-4.2-7l-23.8-13-13-23.8c-1.4-2.6-4.1-4.2-7-4.2s-5.6 1.6-7 4.2l-13 23.8-23.8 13c-2.6 1.4-4.2 4.1-4.2 7s1.6 5.6 4.2 7zm33.5-14.1c1.3-.7 2.4-1.8 3.2-3.2l7.1-13 7.1 13c.7 1.3 1.8 2.4 3.2 3.2l13 7.1-13 7.1c-1.3.7-2.4 1.8-3.2 3.2l-7.1 13-7.1-13c-.7-1.3-1.8-2.4-3.2-3.2l-13-7.1z"/><path d="m387.8 457-23.8-13-13-23.8c-1.4-2.6-4.1-4.2-7-4.2s-5.6 1.6-7 4.2l-13 23.8-23.8 13c-2.6 1.4-4.2 4.1-4.2 7s1.6 5.6 4.2 7l23.8 13 13 23.8c1.4 2.6 4.1 4.2 7 4.2s5.6-1.6 7-4.2l13-23.8 23.8-13c2.6-1.4 4.2-4.1 4.2-7s-1.6-5.6-4.2-7zm-33.5 14.1c-1.3.7-2.4 1.8-3.2 3.2l-7.1 13-7.1-13c-.7-1.3-1.8-2.4-3.2-3.2l-13-7.1 13-7.1c1.3-.7 2.4-1.8 3.2-3.2l7.1-13 7.1 13c.7 1.3 1.8 2.4 3.2 3.2l13 7.1z"/><path d="m511.1 292.4-55.1-110.3v-86.1c0-2.6-1.2-5-3.3-6.5s-4.8-1.9-7.2-1.1l-13.5 4.5v-12.9c0-4-2.9-7.3-6.8-7.9-22.1-3.3-44.5-3.3-66.4 0-33.8 5.1-66.6 18.4-95.3 38.4-24.4-13.6-50.5-23.8-77.7-30.3-33.7-8.1-78.9-8.9-98.1-8.2-4.3.2-7.7 3.7-7.7 8v12.9l-13.5-4.5c-2.4-.8-5.1-.4-7.2 1.1-2.1 1.5-3.3 3.9-3.3 6.5v86.1l-55.6 110.3c-.6 1.1-.9 2.3-.9 3.6v216h16v-212.2l94.8-78.2c2.2 10.4 2.7 27.6-10 45l-42.3 39.6c-1.6 1.5-2.5 3.6-2.5 5.8v24c0 4.4 3.6 8 8 8 .1 0 10.5.3 18.2 9.7 9.5 11.6 11.6 32.6 6 60.7l15.7 3.1c2.5-12.7 3.7-24.2 3.4-34.4 4.7-.3 9.3-.4 13.9-.4.3 17.5-2.4 62.6-35.6 73.7-3.3 1.1-5.5 4.1-5.5 7.6v48h16v-42.5c19.5-8.7 32.6-27.4 38.2-54.4 2.6-12.4 3-23.9 2.9-31.6 41.7 3.4 75.6 18.4 94.3 28.6.7.4 1.1 1 1.1 1.8v10.1c0 4.4 3.6 8 8 8h48c4.4 0 8-3.6 8-8v-11.3c0-.6.3-1.2.7-1.6 26.5-21.1 55.9-27.9 78.3-29.5-.4 20.7 2.8 70.9 40.9 87.9v42.5h16v-48c0-3.4-2.2-6.5-5.5-7.6-33.3-11.1-35.8-57.4-35.4-75.2 5.6.2 10.2.6 13.7 1-.4 10.4.7 22.2 3.3 35.3l15.7-3.1c-5.6-27.9-3.6-48.8 5.8-60.5 7.7-9.6 18-9.9 18.4-10 4.4 0 8-3.6 8-8v-24c0-2.2-.9-4.3-2.5-5.8l-42.2-39.5c-12.8-17.4-12.2-34.6-10-45l94.8 78.2v212.2h16v-216c-.1-1.3-.4-2.5-1-3.6zm-31.1-26.6-24-19.8v-28.2zm-40-158.7v125.8l-8-6.6v-116.5zm-360 2.7v116.1l-8 6.6v-125.4zm-24 135.9-24.2 20 24.2-48zm55.7 32.1c.3-.3.7-.7.9-1 26.7-35.5 9.5-70.9 8.8-72.4-1.1-2.2-3.1-3.7-5.5-4.2s-4.9.1-6.7 1.7l-13.2 10.8v-124.9c21.1-.2 58 1.2 86.1 8 25.8 6.2 50.7 15.9 73.9 28.9v245.8c-22.2-11.6-45.7-20.4-70.1-26.2-29.5-7.1-67.9-8.6-89.9-8.4v-43.3zm-40.2 37.7 8.5-7.9v24.8c-3.1-1.5-6-2.5-8.5-3.2zm215.3 83.1c-4.3 3.4-6.8 8.6-6.8 14.1v3.3h-32v-2.2c0-6.6-3.6-12.7-9.4-15.8-24.7-13.4-74-34.6-133.7-30.7-1.2-5.7-3-10.8-5.4-15.4 21.5 0 56 1.6 82.6 8 27.3 6.5 53.5 17 77.9 31.1 1.2.7 2.6 1.1 4 1.1s2.8-.4 4-1.1c.3-.1.5-.3.7-.5 27.6-20.2 59.5-33.5 92.5-38.5 17-2.6 34.2-3 51.4-1.3-2.6 4.6-4.5 9.9-5.8 15.7-20.2-2.7-73.4-5-120 32.2zm153.2-69.4c-2.4.6-5.1 1.5-8 2.9v-24.1l8 7.5zm-44.4-129c-2.4.5-4.4 2.1-5.5 4.2-.7 1.5-17.9 36.8 8.8 72.4.3.4.6.7.9 1l16.2 15.2v41.9c-19.1-2.1-38.3-1.7-57.2 1.2-30.5 4.6-60.2 15.9-86.8 32.8v-244.8c26.8-18.9 57.6-31.4 89.2-36.2 18.1-2.7 36.5-3 54.8-.9v126.1l-13.7-11.3c-1.9-1.5-4.4-2.1-6.7-1.6z"/><path d="m228 174.9 7.9-13.9c-57.7-33-114.7-25.3-117.1-25l2.3 15.8c.6 0 53.9-7.1 106.9 23.1z"/><path d="m228 214.9 7.9-13.9c-57.7-33-114.7-25.3-117.1-25l2.3 15.8c.6 0 53.9-7.1 106.9 23.1z"/><path d="m284 321.1 7.9 13.9c52.8-30.2 106.4-23.1 106.9-23l2.3-15.8c-2.4-.5-59.4-8.1-117.1 24.9z"/><path d="m284 153.9 7.9 13.9c52.8-30.2 106.4-23.1 106.9-23l2.3-15.8c-2.4-.4-59.4-8-117.1 24.9z"/></g></g></symbol><symbol viewBox="0 0 484.88403 511.99734" id="src-7"><g><g><g><path d="m373.667 215.56h.167c14.372 0 26.018-11.655 26.018-26.018 0-14.372-11.646-26.028-26.018-26.028-.187 0-.374 0-.561.01h-238.248c-.187-.01-.374-.01-.561-.01-14.372 0-26.018 11.655-26.018 26.028 0 14.363 11.646 26.018 26.018 26.018h.167" fill="#f1b986"/><path d="m367.682 95.572c-75.689-7.338-151.377-7.338-227.066 0-5.873 47.06-7.603 94.121-5.19 141.181 1.757 34.258 29.17 61.525 63.434 63.143 36.859 1.74 73.718 1.74 110.577 0 34.264-1.618 61.677-28.885 63.434-63.143 2.415-47.061.685-94.121-5.189-141.181z" fill="#f1d0a5"/><path d="m140.621 95.564c37.838-3.67 75.687-5.499 113.536-5.499-19.162 0-38.323 1.852-57.485 5.555-2.981 47.514-3.85 95.029-2.631 142.532.802 31.266 12.229 56.762 27.224 62.577-7.464-.203-14.939-.486-22.402-.836-34.258-1.615-61.674-28.884-63.435-63.142-2.406-47.061-.679-94.124 5.193-141.187z" fill="#f1b986"/><path d="m317.191 134.706c-43.504 16.806-105.301 9.395-136.445-21.748 0 0-7.396 50.566-45.712 50.566l-16.709 5.619c-44.626-175.171 50.559-128.366 50.559-128.366 8.986-17.415 22.076-24.625 35.752-26.364 1.204-.149 2.408-.26 3.62-.334.097 0 .193-.007.29-.015 9.633-.513 19.385 1.442 28.052 4.229 3.018.974 5.909 2.044 8.615 3.152 10.889 4.452 18.82 9.455 20.485 10.525.216.149.327.223.327.223 9.795-12.964 19.138-24.693 29.41-24.693 4.214 0 7.128 1.613 9.083 4.192 7.411 9.715 1.323 33.076.832 34.912l-.022.082c.007-.015.015-.045.03-.082l.052-.134c1.316-3.315 16.033-38.97 42.427-38.97 1.665 0 3.159.156 4.489.453 19.675 4.348 4.274 38.762 2.579 42.404l-.045.104c-.045.089-.074.156-.089.186.84-1.07 33.79-42.902 48.432-23.711.007.015.007.015.015.022 14.77 19.468-42.545 90.949-86.027 107.748z" fill="#f4dd45"/><g fill="#ecc32e"><path d="m403.204 26.937h-.007c-7.403-7.396-33.046 27.516-48.447 23.733l.112-.208c-.045.089-.074.156-.089.186.838-1.071 33.788-42.903 48.431-23.711z"/><path d="m352.326 7.953c-11.122-2.526-21.431 18.643-27.255 33.671-2.817 7.267-11.542 10.184-18.166 6.077l-1.591-.986.015-.03.022-.082h.007l.052-.134c1.316-3.315 16.033-38.97 42.427-38.97 1.664.001 3.158.157 4.489.454z"/><path d="m204.633 14.413c-31.827 5.612-43.854 78.58-23.889 98.544 0 0-7.396 50.566-45.712 50.566l-16.709 5.619c-44.627-175.17 50.558-128.365 50.558-128.365 8.987-17.415 22.076-24.625 35.752-26.364z"/><path d="m304.518 11.692c-11.186-11.186-18.642 46.18-43.824 55.367s-27.539-2.557-27.539-2.557v-.007c12.398-4.586 22.863-19.08 32.861-32.311.007.007.007.007.007.007.305-.409.609-.81.914-1.212.379-.513.773-1.026 1.16-1.531 9.053-11.824 17.794-21.948 27.338-21.948 4.214 0 7.128 1.613 9.083 4.192z"/><path d="m208.565 14.071c-.104 0-.208 0-.312.008.097 0 .193-.008.29-.015z"/></g></g><path d="m444.37 280.45v169.04c0 10.82-7.55 20.18-18.12 22.47l-150.15 32.54h-19.38v-216.08h19.38l140.41-30.43c14.32-3.11 27.86 7.81 27.86 22.46z" fill="#da4a54"/><path d="m256.72 288.42v216.08h-20.82l-150.15-32.54c-10.57-2.29-18.12-11.65-18.12-22.47v-169.04c0-14.65 13.54-25.57 27.86-22.46l140.41 30.43z" fill="#c32430"/><path d="m235.902 504.5v-216.081h40.196v216.081" fill="#dd636e"/><g><g><path d="m63.504 362.126h-7.864c-11.612 0-21.026-9.414-21.026-21.026v-18.874c0-11.612 9.414-21.026 21.026-21.026h7.864c11.612 0 21.026 9.414 21.026 21.026v18.874c0 11.613-9.413 21.026-21.026 21.026z" fill="#f1d0a5"/><path d="m67.545 361.73c-1.3.27-2.66.4-4.04.4h-7.87c-11.61 0-21.02-9.42-21.02-21.03v-18.87c0-11.62 9.41-21.03 21.02-21.03h7.87c1.38 0 2.74.13 4.04.4-9.67 1.88-16.97 10.4-16.97 20.63v18.87c0 10.23 7.3 18.75 16.97 20.63z" fill="#f1b986"/></g><g><path d="m456.359 362.126h-7.864c-11.612 0-21.026-9.414-21.026-21.026v-18.874c0-11.612 9.414-21.026 21.026-21.026h7.864c11.612 0 21.026 9.414 21.026 21.026v18.874c0 11.613-9.413 21.026-21.026 21.026z" fill="#f1d0a5"/><path d="m460.4 361.73c-1.3.27-2.66.4-4.04.4h-7.87c-11.61 0-21.02-9.42-21.02-21.03v-18.87c0-11.62 9.41-21.03 21.02-21.03h7.87c1.38 0 2.74.13 4.04.4-9.67 1.88-16.97 10.4-16.97 20.63v18.87c0 10.23 7.3 18.75 16.97 20.63z" fill="#f1b986"/></g></g></g><g><path d="m285.269 242.415c1.776-3.742.183-8.215-3.56-9.991s-8.215-.182-9.991 3.56c-3.204 6.75-10.1 11.112-17.569 11.112s-14.365-4.362-17.568-11.112c-1.776-3.742-6.249-5.336-9.991-3.56s-5.336 6.249-3.561 9.991c5.674 11.956 17.889 19.681 31.12 19.681s25.446-7.726 31.12-19.681z"/><ellipse cx="198.749" cy="195.403" rx="10.833" ry="16.125"/><ellipse cx="309.55" cy="195.403" rx="10.833" ry="16.125"/><path d="m417.18 318.491c-.877-4.048-4.867-6.618-8.918-5.741l-83.05 18c-4.048.877-6.618 4.87-5.741 8.918.761 3.513 3.869 5.913 7.322 5.913.526 0 1.061-.056 1.596-.172l83.05-18c4.048-.877 6.618-4.869 5.741-8.918z"/><path d="m408.261 340.62-83.05 18c-4.048.877-6.618 4.87-5.741 8.918.761 3.513 3.869 5.913 7.322 5.913.526 0 1.061-.056 1.596-.172l83.05-18c4.048-.877 6.618-4.87 5.741-8.918-.876-4.048-4.866-6.617-8.918-5.741z"/><path d="m456.359 293.701h-4.489v-13.251c0-9.264-4.139-17.913-11.355-23.73-7.214-5.816-16.542-8.025-25.593-6.059l-39.094 8.472c2.604-7.028 4.151-14.447 4.542-21.999.253-4.942.45-9.893.612-14.848 15.058-3.285 26.371-16.714 26.371-32.743 0-16.216-11.569-29.777-26.884-32.866-.904-18.788-2.461-37.556-4.659-56.221 17.549-18.725 31.344-39.584 35.675-54.923 2.748-9.732 1.966-17.519-2.325-23.143-3.96-5.19-9.358-7.95-15.612-7.981-7.16-.026-14.983 3.408-23.894 10.491.337-6.427-.79-11.734-3.381-15.855-2.593-4.127-7.898-9.045-18.442-9.045-14.022 0-25.039 7.87-33.088 16.963-.787-3.628-2.126-7.014-4.247-9.802-3.562-4.684-8.772-7.161-15.066-7.161-12.155 0-21.743 10.081-31.284 22.303-3.998-2.255-9.542-5.12-16.106-7.809-2.977-1.213-6.045-2.335-9.149-3.346-11.021-3.534-21.362-5.074-30.736-4.578-.067.003-.16.01-.247.018-.025.001-.05.002-.076.004-1.386.079-2.734.202-4.138.378-16.16 2.055-28.921 10.243-38.019 24.37-16.275-5.701-42.537-7.755-56.848 15.442-2.175 3.525-1.081 8.146 2.445 10.321 1.228.757 2.587 1.118 3.931 1.118 2.516 0 4.973-1.265 6.39-3.563 13.376-21.681 42.75-7.743 43.977-7.148 3.667 1.804 8.102.341 9.975-3.29 6.894-13.358 16.721-20.676 30.025-22.368 1.023-.128 2.017-.219 3.036-.279.155-.006.314-.017.475-.03 7.517-.379 16.003.931 25.197 3.879 2.731.889 5.457 1.886 8.089 2.959 4.936 2.022 9.257 4.177 12.597 5.989-7.869 10.294-15.98 19.987-24.42 23.104-3.886 1.435-5.873 5.748-4.438 9.634 1.436 3.886 5.749 5.872 9.634 4.438 13.853-5.116 24.487-19.219 34.772-32.857 8.373-11.105 17.863-23.689 24.918-23.689 2.012 0 2.667.639 3.124 1.238 3.695 4.85 1.906 19.86-.464 28.47-1.072 3.864 1.085 7.887 4.896 9.133 3.813 1.248 7.928-.725 9.346-4.475.13-.344 13.609-34.366 35.499-34.366 4.467 0 5.427 1.524 5.742 2.024 3.477 5.519-1.276 21.401-5.58 30.392-1.662 3.454-.451 7.605 2.807 9.625 3.257 2.02 7.515 1.258 9.869-1.766.053-.068 5.341-6.831 12.489-13.555 11.792-11.095 18.098-12.312 20.287-12.312h.029c1.31.007 2.451.363 3.76 2.079 1.202 1.576 1.133 5.302-.185 9.969-7.362 26.074-49.533 73.488-82.572 86.253-43.105 16.655-100.719 7.656-128.433-20.058-2.006-2.006-4.971-2.708-7.663-1.816-2.692.893-4.651 3.227-5.061 6.034-.017.114-1.733 11.507-7.708 22.883-7.412 14.115-17.704 21.272-30.589 21.272-.01 0-.019.001-.028.001-.178-.004-.355-.011-.533-.011-3.91 0-7.663.68-11.156 1.917-7.697-32.53-10.691-58.818-8.871-78.2.387-4.124-2.642-7.781-6.766-8.168-4.123-.386-7.781 2.642-8.168 6.766-2.071 22.06 1.467 51.778 10.487 88.34-5.604 5.995-9.044 14.038-9.044 22.874 0 16.032 11.317 29.464 26.38 32.745.163 4.96.36 9.912.614 14.844.368 7.232 1.802 14.357 4.213 21.13l-35.071-7.601c-9.052-1.966-18.382.242-25.598 6.059s-11.354 14.466-11.354 23.73v13.251h-4.489c-15.729 0-28.526 12.797-28.526 28.526v18.873c0 15.729 12.797 28.526 28.526 28.526h4.489v79.864c0 14.25 10.107 26.783 24.032 29.8l150.15 32.54c.009.002.018.002.026.004.207.044.419.076.632.102.048.006.095.017.143.022.248.026.5.039.755.04.011 0 .022.002.033.002h40.2c.011 0 .022-.002.033-.002.255-.001.507-.014.755-.04.048-.005.095-.016.143-.022.213-.026.424-.058.632-.102.009-.002.018-.002.026-.004l150.149-32.54c13.925-3.017 24.032-15.55 24.032-29.8v-10.228c0-4.142-3.358-7.5-7.5-7.5s-7.5 3.358-7.5 7.5v10.228c0 7.24-5.134 13.607-12.208 15.14l-141.063 30.571v-200.732l134.504-29.15c4.596-.998 9.334.124 13 3.079s5.769 7.348 5.769 12.052v15.737c-9.949 4.46-16.9 14.45-16.9 26.039v18.874c0 11.59 6.951 21.58 16.9 26.039v42.123c0 4.142 3.358 7.5 7.5 7.5s7.5-3.358 7.5-7.5v-39.636h4.489c15.729 0 28.526-12.797 28.526-28.526v-18.874c-.001-15.729-12.798-28.525-28.527-28.525zm-64.006-104.159c0 7.538-4.534 14.027-11.012 16.914.147-11.308.058-22.635-.268-33.965 6.623 2.825 11.28 9.403 11.28 17.051zm-276.407 0c0-7.64 4.648-14.213 11.262-17.043-.323 11.303-.398 22.644-.248 33.957-6.48-2.886-11.014-9.375-11.014-16.914zm26.974 46.821c-1.125-21.79-1.331-43.918-.635-65.882 15.325-2.324 27.885-12.143 36.609-28.755 2.792-5.316 4.804-10.613 6.224-15.13 15.282 11.391 35.453 19.302 58.117 22.636 26.694 3.927 53.915 1.253 76.649-7.53 13.928-5.381 28.716-15.607 42.313-27.875 4.193 40.738 5.273 81.886 3.193 122.536-.489 9.448-3.239 18.635-7.971 26.76l-82.123 17.798h-38.593l-86.346-18.713c-4.409-7.888-6.974-16.756-7.437-25.845zm100.482 59.557h25.196v201.08h-25.196zm-201.287 45.18v-18.874c0-7.458 6.068-13.526 13.526-13.526h7.864c7.458 0 13.526 6.068 13.526 13.526v18.874c0 7.458-6.068 13.526-13.526 13.526h-7.864c-7.458 0-13.526-6.067-13.526-13.526zm33.015 108.39v-82.35c9.949-4.46 16.9-14.45 16.9-26.039v-18.874c0-11.59-6.951-21.58-16.9-26.039v-15.738c0-4.704 2.103-9.097 5.769-12.052s8.404-4.077 13.003-3.078l134.5 29.149v200.732l-141.064-30.571c-7.074-1.533-12.208-7.9-12.208-15.14zm394.755-108.39c0 7.458-6.068 13.526-13.526 13.526h-7.864c-7.458 0-13.526-6.068-13.526-13.526v-18.874c0-7.458 6.068-13.526 13.526-13.526h7.864c7.458 0 13.526 6.068 13.526 13.526z"/></g></g></symbol><symbol viewBox="0 0 256.04456 249.05724" id="src-8"><g id="Layer_6"><g><path d="m230.8 132.2-18.5-74.4c-.3-1-1.3-1.7-2.3-1.5l-59.2 9.2c-1 .2-1.8 1.1-1.8 2.1l5 76.5c.1 2.3 2 4 4.3 3.9h.5l68.8-10.7c2.2-.3 3.8-2.5 3.4-4.7-.2-.1-.2-.3-.2-.4z" fill="#fc657e"/><path d="m153.9 144.1-5-76.5c0-1.1.7-2 1.8-2.1l26.8-4.2-5.8-23.2c-.4-1.3-1.7-2.2-3-2l-78 12.1c-1.4.2-2.4 1.4-2.3 2.8l6.5 100.7c.1 3 2.7 5.3 5.6 5.2.2 0 .4 0 .6-.1l57.5-8.9c-2.2.3-4.4-1.2-4.7-3.4.1-.1 0-.2 0-.4z" fill="#f5c84c"/><circle cx="108.9" cy="229.4" fill="#29589f" r="17.3"/><circle cx="194.3" cy="229.4" fill="#29589f" r="17.3"/><path d="m38.4 54.6c-.2 0-.4 0-.6 0l-29.5-2.9c-3.5-.3-6.1-3.4-5.8-6.9s3.4-6.1 6.9-5.8l29.6 2.9c3.5.3 6.1 3.5 5.7 7-.3 3.2-3 5.7-6.3 5.7z" fill="#fc657e"/><path d="m215.9 200.1h-119.9l10.4-15.1c3.7-5.4 9.4-9 15.9-10.1l79.9-13.1c3.3-.5 5.5-3.6 5-6.9-.5-2.9-3-5.1-6-5.1l-83.3 13.6c-8.7 2.1-16.3 7.3-21.4 14.6l-13.7 20c-2.8 4.1-1.8 9.7 2.3 12.5 1.5 1 3.3 1.6 5.1 1.6h125.7c3.3 0 6-2.7 6-6 .1-3.3-2.6-6-6-6z" fill="#dae6f1"/><circle cx="108.9" cy="229.4" fill="#5290db" r="6.2"/><circle cx="194.3" cy="229.4" fill="#5290db" r="6.2"/><path d="m253.2 158.7h-2.1v-2.1c0-1.5-1.3-2.8-2.8-2.8s-2.8 1.3-2.8 2.8v2.1h-2.1c-1.5 0-2.8 1.3-2.8 2.8s1.3 2.8 2.8 2.8h2.1v2.1c0 1.5 1.3 2.8 2.8 2.8s2.8-1.3 2.8-2.8v-2.1h2.1c1.5 0 2.8-1.3 2.8-2.8s-1.3-2.8-2.8-2.8z" fill="#70d6f9"/><path d="m88.3 30.5c-4-.7-7.1-3.8-7.9-7.7 0-.1-.1-.2-.2-.1-.1 0-.1.1-.1.1-.8 4-3.9 7-7.9 7.7-.1 0-.2.1-.1.2 0 .1.1.1.1.1 4 .7 7.1 3.8 7.9 7.7 0 .1.1.2.2.1.1 0 .1-.1.1-.1.8-4 3.9-7 7.9-7.7.1 0 .2-.1.1-.2 0-.1 0-.1-.1-.1z" fill="#f5c84c"/><circle cx="64" cy="52.8" fill="#fc657e" r="3"/><circle cx="57" cy="139.8" fill="#87d147" r="3"/><circle cx="238" cy="180.8" fill="#f5c84c" r="3"/><path d="m8 54.2 29.5 2.8c.5.1 1.1.1 1.6 0l43.9 100.7c3.2 7.4 10.9 11.9 18.9 10.9-2.9 2.3-5.4 5-7.5 8.1l-13.7 19.8c-3.6 5.2-2.3 12.4 3 16 1.9 1.3 4.2 2 6.5 2h5.5c-8.2 7.2-8.9 19.7-1.7 27.9s19.7 8.9 27.9 1.7 8.9-19.7 1.7-27.9c-.5-.6-1.1-1.2-1.7-1.7h59.2c-8.2 7.2-8.9 19.7-1.7 27.9s19.7 8.9 27.9 1.7 8.9-19.7 1.7-27.9c-.5-.6-1.1-1.2-1.7-1.7h8.5c4.7 0 8.5-3.8 8.5-8.5s-3.8-8.5-8.5-8.5h-115l7.7-11.1c3.3-4.8 8.5-8.1 14.2-9l79.9-13.1c4.6-.8 7.8-5.1 7-9.8-.2-1.2-.6-2.3-1.3-3.3l23.2-3.8c5.2-.8 9-5.3 9-10.6v-59.5c0-4.7-3.8-8.4-8.4-8.4-.1 0-.2 0-.2 0l-14.3.4-3-12.2c-.6-2.2-2.8-3.7-5.1-3.3l-6.1.9-.2-1.3c-2-12.9-14.1-21.8-27-19.8-1.4.2-2.7.6-4.1 1-1.1-.8-2.5-1.2-3.9-1l-8.8 1.4-.4-2.5c-2.5-16.5-18.1-27.8-34.6-25.2s-27.8 18.1-25.3 34.6l.4 2.5-9.1 1.4c-2.6.4-4.6 2.8-4.4 5.4l1.4 21.6-35.4 1-8.1-18.5c3.9-3 4.6-8.6 1.6-12.5-1.5-1.9-3.7-3.2-6.2-3.4l-29.6-2.8c-4.9-.5-9.2 3.1-9.7 8s3.1 9.2 8 9.6zm87.6 69.3-2.6-40.2 29.6 67.8-14 2.2zm7.8 30.6-2.6.4c-1.6.2-3.1-.8-3.3-2.4 0-.1 0-.3 0-.4l-.9-13.4zm58-94.1c-1.2-7.4 2.2-14.7 8.5-18.7l4.5 18-12.8 2zm50.1 14.4 5.4 12.4 11.4 45.9v.1c.2.9-.3 1.8-1.1 2-.1 0-.1 0-.2 0l-3.9.6-26.4-60.6zm-20.1.6 26.7 61.3-14 2.2-27.5-63zm16.1 71.3-1.4-3.2 14-2.2 1.3 3.1zm-38.1 6.3-1.5-3.5 14-2.2 1.5 3.4zm-3.5-8.2-11-25.3-2.6-40.3 27.6 63.5zm-7.6 1.1c-.9.1-1.7-.5-1.8-1.4 0-.1 0-.2 0-.2l-.7-10.2 5 11.4zm4.5 4.4 1.5 3.5-13.9 2.3-1.6-3.6zm-17.5 6.6-13.9 2.3-1.6-3.8 14-2.2zm43.2-7-1.5-3.3 14-2.2 1.4 3.2zm-17.3-74 27.7 63.7-14 2.2-28.5-65.5zm-19.5-4.4-.2-3.2 6-.9.6 3.9zm-2.8 34.4-12.6-29 10.7-.3zm-18-28.9 19 43.6 1.6 24c0 .8.2 1.5.5 2.3l-5.2.8-30.7-70.3zm-20.2.6 30.9 70.9-14 2.2-31.6-72.7zm13.9 78.6 1.7 3.8-13.9 2.3-1.7-3.9zm-.9 73.6c0 8.2-6.6 14.8-14.8 14.8s-14.8-6.6-14.8-14.8 6.6-14.8 14.8-14.8 14.8 6.6 14.8 14.8zm85.4 0c0 8.2-6.6 14.8-14.8 14.8s-14.8-6.6-14.8-14.8 6.6-14.8 14.8-14.8 14.8 6.6 14.8 14.8zm-4.4-74.1c.3 1.9-1 3.7-2.9 4l-79.9 13.1c-7.1 1.2-13.4 5.2-17.5 11.1l-10.4 15.2c-.8 1.1-.5 2.7.6 3.5.4.3.9.4 1.4.4h119.9c1.9 0 3.5 1.6 3.5 3.5s-1.6 3.5-3.5 3.5h-125.6c-3.6 0-6.5-2.9-6.5-6.5 0-1.3.4-2.6 1.2-3.7l13.7-19.8c4.7-6.8 11.8-11.7 19.9-13.6l83-13.6c1.5.1 2.9 1.3 3.1 2.9zm26.1-12.8-4.2.7-1.3-3 2.6-.4c3.6-.6 6.1-4 5.5-7.6 0-.2-.1-.5-.1-.7l-4.3-17.1 6.7 15.4v7.1c-.1 2.8-2.1 5.2-4.9 5.6zm1.3-68.6c1.9-.1 3.5 1.4 3.5 3.3v.1 40l-13.9-32-2.7-11zm-22.1-15.1 2.6 10.6-49.5 1.3-.7-4.6 36.9-5.7.8 5.1c.2 1.4 1.5 2.3 2.9 2.1s2.3-1.5 2.1-2.9l-.8-5.1zm-33-20.2c10.2-1.6 19.7 5.4 21.3 15.6l.2 1.3-19.2 3-4.8-19.3c.9-.3 1.7-.5 2.5-.6zm-12.9.8c-1.2 1.1-2.4 2.3-3.4 3.7l-.5-3.1zm-60.1 1.8c-2.2-13.8 7.2-26.9 21.1-29.1s26.9 7.2 29.1 21.1v.2l.4 2.5-50.2 7.8zm-12.9 9.6 9.1-1.4 1.2 7.5c.5 3.3 5.4 2.5 4.9-.8l-1.2-7.5 50.2-7.8 1.2 7.5c.1.6.4 1.1.9 1.5-1.2 3.5-1.5 7.3-.9 11l.2 1.3-6.3 1c-2.3.4-4 2.4-3.9 4.8l.2 3.4-54.4 1.5-1.4-21.8c0-.1.1-.2.2-.2zm-1.4 59.2-13.9-31.9 11.8-.3zm-19.3-31.7 20.2 46.5 1.8 27.2c.2 4.4 3.9 7.8 8.3 7.6.3 0 .6 0 .9-.1l3.9-.6 1.7 4-5.2.9c-6 1-11.9-2.2-14.4-7.8l-33.5-77.3zm-61.2-36.8 29.5 2.8c2.1.2 3.7 2.1 3.5 4.2s-2.1 3.7-4.2 3.5l-29.5-2.7c-2.1-.2-3.7-2.1-3.5-4.3.2-2.1 2.1-3.7 4.2-3.5z"/><path d="m108.9 238.1c4.8 0 8.7-3.9 8.7-8.7s-3.9-8.7-8.7-8.7-8.7 3.9-8.7 8.7 3.9 8.7 8.7 8.7zm0-12.4c2.1 0 3.7 1.7 3.7 3.7s-1.7 3.7-3.7 3.7c-2.1 0-3.7-1.7-3.7-3.7 0-2.1 1.7-3.7 3.7-3.7z"/><path d="m194.3 238.1c4.8 0 8.7-3.9 8.7-8.7s-3.9-8.7-8.7-8.7-8.7 3.9-8.7 8.7c0 4.8 3.9 8.7 8.7 8.7zm0-12.4c2.1 0 3.7 1.7 3.7 3.7 0 2.1-1.7 3.7-3.7 3.7-2.1 0-3.7-1.7-3.7-3.7 0-2.1 1.7-3.7 3.7-3.7z"/></g></g></symbol><symbol viewBox="0 0 512 490.74533" id="src-9"><g><g><path clip-rule="evenodd" d="m100.518 170.883 113.356 13.69 139.647-13.69c10.819 0 19.613-8.825 19.613-19.613 0-10.819-8.794-19.644-19.613-19.644h-12.33l-151.01-31.823 151.01-31.792h12.33c10.819 0 19.613-8.825 19.613-19.644s-8.794-19.613-19.613-19.613h-253.003c-39.165 0-71.078 31.913-71.078 71.049 0 18.888 7.495 36.87 20.852 50.227s31.338 20.853 50.226 20.853z" fill="#ffe07d" fill-rule="evenodd"/></g><g><path clip-rule="evenodd" d="m100.518 131.626h240.673c-10.094-21.336-10.033-42.551 0-63.615h-240.673c-17.497 0-31.822 14.325-31.822 31.792 0 8.492 3.354 16.47 9.338 22.484 6.014 5.984 13.992 9.339 22.484 9.339z" fill="#f9f7f8" fill-rule="evenodd"/></g><g><path clip-rule="evenodd" d="m341.191 68.011h-240.673c-17.497 0-31.822 14.325-31.822 31.792 0 4.866 1.118 9.55 3.173 13.811 5.168-10.638 16.077-18.042 28.649-18.042l233.239.03c.574-9.247 3.082-18.434 7.434-27.591z" fill="#dddaec" fill-rule="evenodd"/></g><g><path clip-rule="evenodd" d="m353.52 28.754h-93.44c5.621 12.028 9.731 25.234 12.088 39.257h69.023 12.33c10.819 0 19.613-8.825 19.613-19.644s-8.795-19.613-19.614-19.613z" fill="#ffd064" fill-rule="evenodd"/></g><g><path clip-rule="evenodd" d="m227.593 346.225 171.741-19.16c19.975 0 36.325-16.35 36.325-36.326v-41.765-41.765c0-19.976-16.349-36.326-36.325-36.326h-45.814-253.002-51.919c-10.547 0-19.16 8.613-19.16 19.16s8.613 19.16 19.16 19.16h18.041l330.699 39.771-330.698 39.77h-18.042c-10.547 0-19.16 8.613-19.16 19.16s8.613 19.16 19.16 19.16z" fill="#a7e9a6" fill-rule="evenodd"/></g><g><path clip-rule="evenodd" d="m66.641 288.744h321.028c5.319 0 9.67-4.352 9.67-9.671v-60.2c0-5.319-4.352-9.671-9.67-9.671h-321.028c6.316 13.237 9.489 26.474 9.459 39.771 0 13.207-3.143 26.474-9.459 39.771z" fill="#f9f7f8" fill-rule="evenodd"/></g><g><path clip-rule="evenodd" d="m387.669 209.203h-321.028c3.113 6.498 5.44 12.995 7.011 19.492h291.594c5.289 0 9.64 4.352 9.64 9.671v50.378h12.783c5.319 0 9.67-4.352 9.67-9.671v-60.2c0-5.318-4.351-9.67-9.67-9.67z" fill="#dddaec" fill-rule="evenodd"/></g><g><path clip-rule="evenodd" d="m341.191 131.626h-71.108c-3.354 14.204-8.613 27.41-15.382 39.257h98.82c10.819 0 19.613-8.825 19.613-19.613 0-10.819-8.794-19.644-19.613-19.644z" fill="#ffd064" fill-rule="evenodd"/></g><g><path clip-rule="evenodd" d="m399.334 170.883h-45.814-29.253c6.286 11.635 11.121 24.539 14.203 38.32h49.198c5.319 0 9.67 4.352 9.67 9.671v60.2c0 5.319-4.352 9.671-9.67 9.671h-12.783-38.893c-4.08 13.962-10.003 26.897-17.467 38.32h80.809c19.975 0 36.325-16.35 36.325-36.326v-41.765-41.765c0-19.977-16.349-36.326-36.325-36.326z" fill="#7fdbae" fill-rule="evenodd"/></g><g><path clip-rule="evenodd" d="m48.599 327.065h-4.805c-19.975 0-36.294 16.35-36.294 36.326v41.765 41.765c0 19.976 16.349 36.326 36.294 36.326h441.546c7.978 0 14.868-4.956 17.739-11.937.907-2.236 1.42-4.684 1.42-7.223 0-2.569-.514-5.017-1.42-7.253-2.871-6.981-9.761-11.907-17.739-11.907h-18.041l-421.48-36.265 421.48-43.276h18.041c7.978 0 14.868-4.926 17.739-11.907.907-2.236 1.42-4.684 1.42-7.253 0-2.539-.514-4.986-1.42-7.223-2.871-6.981-9.761-11.937-17.739-11.937-145.57-.001-291.17-.001-436.741-.001z" fill="#ffe07d" fill-rule="evenodd"/></g><g><path clip-rule="evenodd" d="m467.299 444.926h-78.935c-5.137 14.234-12.269 27.169-20.943 38.32h117.919c7.978 0 14.868-4.956 17.739-11.937.907-2.236 1.42-4.684 1.42-7.223 0-2.569-.514-5.017-1.42-7.253-2.871-6.981-9.761-11.907-17.739-11.907z" fill="#ffd064" fill-rule="evenodd"/></g><g><path clip-rule="evenodd" d="m485.34 327.065h-86.006-15.231c5.319 11.816 9.247 24.69 11.423 38.32h71.773 18.041c7.978 0 14.868-4.926 17.739-11.907.907-2.236 1.42-4.684 1.42-7.253 0-2.539-.514-4.986-1.42-7.223-2.87-6.981-9.76-11.937-17.739-11.937z" fill="#ffd064" fill-rule="evenodd"/></g><g><path clip-rule="evenodd" d="m457.84 405.155c-.03-13.297 3.143-26.564 9.459-39.771-221.725 0-269.866 0-411.81 0-5.319 0-9.67 4.352-9.67 9.671v60.2c0 5.319 4.352 9.671 9.67 9.671h411.81c-6.316-13.297-9.459-26.564-9.459-39.771z" fill="#f9f7f8" fill-rule="evenodd"/></g><g><path clip-rule="evenodd" d="m137.295 365.385h-81.805c-5.319 0-9.67 4.352-9.67 9.671v30.1c0-5.319 4.352-9.671 9.67-9.671h81.806 10.366 42.157 10.335 258.231c1.148-10.033 4.14-20.067 8.915-30.1h-267.117z" fill="#dddaec" fill-rule="evenodd"/></g><g><path clip-rule="evenodd" d="m137.295 397.781c-.363 4.594 1.42 6.074 5.289 2.539l26.14-24.932 26.14 24.932c3.868 3.536 5.681 2.055 5.289-2.539.03-49.593.03-99.215.06-148.808h-62.948c0 49.593.03 99.216.03 148.808z" fill="#eb5468" fill-rule="evenodd"/></g><g><path clip-rule="evenodd" d="m200.214 248.974h-21.486c-.03 45.301-.03 90.602-.03 135.904l11.121 10.608 5.047 4.835c3.868 3.536 5.681 2.055 5.289-2.539v-2.297c.028-48.837.028-97.674.059-146.511z" fill="#e5384f" fill-rule="evenodd"/></g><path d="m485.341 437.426h-13.18c-9.144-21.726-9.148-42.925-.01-64.542h13.19c14.7 0 26.659-11.959 26.659-26.66 0-14.7-11.959-26.66-26.659-26.66h-53.038c6.751-7.712 10.855-17.795 10.855-28.826v-83.53c0-24.166-19.659-43.826-43.824-43.826h-21.567c1.83-3.648 2.866-7.761 2.866-12.113 0-14.967-12.162-27.144-27.112-27.144h-7.419c-6.621-16.367-6.625-32.353-.011-48.615h7.43c14.95 0 27.112-12.177 27.112-27.144 0-14.95-12.162-27.113-27.112-27.113h-253.003c-43.328 0-78.578 35.237-78.578 78.549 0 20.946 8.186 40.667 23.048 55.53 2.955 2.955 6.109 5.634 9.419 8.049h-5.808c-14.7 0-26.659 11.959-26.659 26.66s11.959 26.66 26.659 26.66h13.19c9.138 21.615 9.135 42.815-.01 64.541h-13.18c-14.7 0-26.659 11.959-26.659 26.66 0 5.624 1.755 10.843 4.739 15.148-15.668 6.685-26.679 22.249-26.679 40.34v83.531c0 24.166 19.646 43.825 43.794 43.825h441.546c14.7 0 26.659-11.959 26.659-26.66.001-14.7-11.958-26.66-26.658-26.66zm0-102.862c6.429 0 11.659 5.231 11.659 11.66s-5.23 11.66-11.659 11.66h-135.357c-4.143 0-7.5 3.358-7.5 7.5s3.357 7.5 7.5 7.5h106.078c-2.931 8.232-4.723 16.496-5.4 24.771 0 0-2.996 14.845 5.416 39.771h-400.588c-1.176 0-2.17-.994-2.17-2.171v-60.2c0-1.176.994-2.17 2.17-2.17h74.301l.005 24.632c-.473 7.374 3.128 10.28 5.339 11.36 2.241 1.096 6.845 2.157 12.51-3.021.039-.036.078-.072.116-.108l20.964-19.995 20.964 19.995c.038.037.077.073.116.108 3.316 3.031 6.268 3.926 8.599 3.926 1.665 0 3.013-.457 3.949-.918 2.214-1.09 5.81-4.01 5.301-11.367l.01-24.612h105.392c4.143 0 7.5-3.358 7.5-7.5s-3.357-7.5-7.5-7.5h-105.387l.01-23.32h277.662zm-402.059-93.09c-.676-8.275-2.503-16.538-5.432-24.771h309.82c1.177 0 2.171.994 2.171 2.17v60.2c0 1.176-.994 2.17-2.171 2.17h-179.969l.01-24.771h52.489c4.143 0 7.5-3.358 7.5-7.5s-3.357-7.5-7.5-7.5h-176.918zm46.49 39.77h-51.939c2.927-8.244 4.757-16.507 5.441-24.771h46.493zm62.939-24.77-.054 131.376-18.757-17.89c-2.897-2.764-7.455-2.764-10.353 0l-18.754 17.888-.027-131.375h47.945zm-155.771-156.671c0-35.041 28.521-63.549 63.578-63.549h253.003c6.679 0 12.112 5.434 12.112 12.113 0 6.696-5.434 12.144-12.112 12.144h-138.258c-4.142 0-7.5 3.358-7.5 7.5s3.358 7.5 7.5 7.5h114.847c-5.294 16.134-5.287 32.411.02 48.615h-229.612c-6.45 0-12.557-2.541-17.167-7.128-4.614-4.638-7.155-10.744-7.155-17.195 0-13.395 10.911-24.292 24.322-24.292h77.817c4.142 0 7.5-3.358 7.5-7.5s-3.358-7.5-7.5-7.5h-77.817c-21.682 0-39.322 17.626-39.322 39.292 0 10.443 4.092 20.307 11.548 27.801 7.468 7.43 17.331 11.522 27.774 11.522h253.003c6.679 0 12.112 5.448 12.112 12.144 0 6.679-5.434 12.113-12.112 12.113h-253.003c-16.939 0-32.893-6.625-44.923-18.656-12.03-12.03-18.655-27.984-18.655-44.924zm11.659 101.9c-6.429 0-11.659-5.23-11.659-11.66 0-6.429 5.23-11.66 11.659-11.66h350.735c15.894 0 28.824 12.931 28.824 28.826v83.53c0 15.895-12.931 28.826-28.824 28.826h-191.649l.01-23.32h179.974c9.468 0 17.171-7.703 17.171-17.17v-60.2c0-9.468-7.703-17.17-17.171-17.17h-339.07zm0 94.541h81.176l.005 23.32h-81.18c-6.429 0-11.659-5.231-11.659-11.66-.001-6.429 5.229-11.66 11.658-11.66zm436.742 179.502h-441.547c-15.877 0-28.794-12.931-28.794-28.825v-83.531c0-15.895 12.917-28.826 28.794-28.826h85.988l.005 23.32h-74.297c-9.468 0-17.17 7.703-17.17 17.17v60.2c0 9.468 7.703 17.171 17.17 17.171h429.851c6.429 0 11.659 5.231 11.659 11.66s-5.23 11.661-11.659 11.661z"/></g></symbol><symbol viewBox="0 0 512.00134 512.00134" id="src-10"><g><g><g><path d="m473.599 467.274h-384.66c-25.065 0-45.384-20.357-45.384-45.468 0-25.111 20.319-45.468 45.384-45.468h384.659c-20.045 26.985-20.045 63.95.001 90.936z" fill="#fff7e8"/><path d="m473.599 376.337h-40c-20.045 26.986-20.045 63.951 0 90.937h40c-20.046-26.986-20.046-63.951 0-90.937z" fill="#fff1d6"/><path d="m486.376 504.5h-396.335c-45.513 0-82.541-37.096-82.541-82.694s37.028-82.694 82.541-82.694h396.335c10.01 0 18.124 8.13 18.124 18.158s-8.114 18.158-18.124 18.158h-396.335c-25.526 0-46.293 20.806-46.293 46.379s20.767 46.379 46.293 46.379h396.335c10.01 0 18.124 8.13 18.124 18.158s-8.114 18.156-18.124 18.156z" fill="#ff7893"/></g><g><path d="m473.599 135.663h-384.66c-25.065 0-45.384-20.357-45.384-45.468 0-25.111 20.319-45.468 45.384-45.468h384.659c-20.045 26.985-20.045 63.95.001 90.936z" fill="#fff7e8"/><path d="m473.599 44.726h-40c-20.045 26.986-20.045 63.951 0 90.937h40c-20.046-26.986-20.046-63.951 0-90.937z" fill="#fff1d6"/><path d="m486.376 172.889h-396.335c-45.513 0-82.541-37.096-82.541-82.694 0-45.599 37.028-82.695 82.541-82.695h396.335c10.01 0 18.124 8.13 18.124 18.157s-8.114 18.157-18.124 18.157h-396.335c-25.526 0-46.293 20.806-46.293 46.379s20.767 46.379 46.293 46.379h396.335c10.01 0 18.124 8.13 18.124 18.158 0 10.029-8.114 18.159-18.124 18.159z" fill="#ff9e5e"/></g><g><path d="m38.401 210.949h384.659c25.065 0 45.384 20.357 45.384 45.468 0 25.112-20.319 45.468-45.384 45.468h-384.659c20.046-26.985 20.046-63.95 0-90.936z" fill="#fff7e8"/><path d="m25.624 173.723h396.335c45.513 0 82.541 37.096 82.541 82.694s-37.028 82.694-82.541 82.694h-396.335c-10.01 0-18.124-8.13-18.124-18.158s8.114-18.158 18.124-18.158h396.335c25.526 0 46.293-20.806 46.293-46.379s-20.767-46.379-46.293-46.379h-396.335c-10.01 0-18.124-8.13-18.124-18.158 0-10.026 8.114-18.156 18.124-18.156z" fill="#59a1a5"/><path d="m421.959 173.723h-40c36.471 0 67.472 23.83 78.359 56.757 5.007 7.408 7.934 16.336 7.934 25.937s-2.927 18.529-7.934 25.937c-10.887 32.927-41.888 56.757-78.359 56.757h40c45.513 0 82.541-37.096 82.541-82.694s-37.028-82.694-82.541-82.694z" fill="#419296"/></g><path d="m315.083 256.417h65.875v155.454l-32.36-31.262-33.515 31.262z" fill="#ffd88f"/><g><path d="m348.02 256.417v124.731l.578-.539 32.36 31.262v-155.454z" fill="#ffc963"/></g></g><path d="m512 154.73c0-14.147-11.495-25.657-25.624-25.657h-8.266c-7.887-11.481-12.046-24.867-12.046-38.879s4.159-27.398 12.047-38.88h8.265c32.977 0 33.203-51.314 0-51.314h-294.421c-9.697 0-9.697 15 0 15h294.421c13.297 0 13.901 21.314 0 21.314h-396.335c-29.662 0-53.793 24.17-53.793 53.88 0 29.709 24.132 53.879 53.793 53.879h396.335c13.553 0 13.683 22.149 0 22.149h-64.417-331.918c-19.936 0-38.756-7.965-52.993-22.427-14.218-14.441-22.048-33.478-22.048-53.601 0-41.462 33.663-75.194 75.041-75.194h61.952c9.697 0 9.697-15 0-15h-61.952c-49.649 0-90.041 40.461-90.041 90.194 0 24.085 9.361 46.858 26.358 64.125 4.439 4.509 9.258 8.478 14.372 11.903h-15.106c-14.129.001-25.624 11.51-25.624 25.659 0 14.147 11.495 25.657 25.624 25.657h8.265c7.888 11.481 12.047 24.866 12.047 38.879s-4.159 27.398-12.047 38.88h-8.265c-14.129 0-25.624 11.51-25.624 25.657s11.495 25.657 25.624 25.657h14.753c-24.314 16.167-40.377 43.835-40.377 75.195 0 49.733 40.392 90.194 90.041 90.194h396.335c32.977 0 33.203-51.315 0-51.315h-8.266c-7.887-11.481-12.046-24.867-12.046-38.879s4.159-27.397 12.046-38.879h8.266c32.977 0 33.203-51.315 0-51.315h-14.753c24.314-16.168 40.377-43.836 40.377-75.195s-16.063-59.027-40.377-75.194h14.753c13.89 0 25.624-12.132 25.624-26.493zm-460.752-64.536c0-21.438 17.403-38.88 38.793-38.88h370.578c-6.277 11.929-9.555 25.157-9.555 38.88 0 13.722 3.278 26.95 9.554 38.879h-370.577c-21.391 0-38.793-17.441-38.793-38.879zm.133 127.344h370.578c21.391 0 38.793 17.441 38.793 38.879s-17.403 38.88-38.793 38.88h-33.501v-31.38h17.927c9.697 0 9.697-15 0-15h-258.299c-9.697 0-9.697 15 0 15h159.497v31.38h-256.202c6.277-11.929 9.555-25.157 9.555-38.88s-3.279-26.95-9.555-38.879zm271.202 46.379h50.875v130.279l-19.648-18.981c-2.87-2.773-7.408-2.812-10.327-.091l-20.899 19.494v-130.701zm-296.959 67.694c-5.858 0-10.624-4.781-10.624-10.657s4.766-10.657 10.624-10.657h281.959v21.314zm434.995 129.074h-90.619c-9.697 0-9.697 15 0 15h116.376c13.297 0 13.901 21.315 0 21.315h-396.335c-41.378 0-75.041-33.732-75.041-75.194s33.663-75.194 75.041-75.194h217.542v21.315h-217.542c-29.662 0-53.793 24.17-53.793 53.879s24.132 53.879 53.793 53.879h239.934c9.697 0 9.697-15 0-15h-239.934c-21.391 0-38.793-17.441-38.793-38.879s17.403-38.879 38.793-38.879h217.542v28.943c0 6.43 7.914 9.871 12.616 5.484l28.309-26.405 27.239 26.314c4.782 4.624 12.711 1.018 12.711-5.394v-28.943h72.161c-6.276 11.929-9.554 25.156-9.554 38.879s3.278 26.951 9.554 38.88zm25.757-114.074c13.298 0 13.901 21.315 0 21.315h-97.918v-21.315h33.501zm10.624-90.194c0 41.462-33.663 75.194-75.041 75.194h-33.501v-21.314h33.501c29.662 0 53.793-24.17 53.793-53.88 0-29.709-24.132-53.879-53.793-53.879h-396.335c-5.858 0-10.624-4.781-10.624-10.657 0-5.877 4.766-10.658 10.624-10.658h64.417 331.918c41.378 0 75.041 33.732 75.041 75.194z"/></g></symbol></svg>